<svg xmlns="http://www.w3.org/2000/svg" version="1.1" xmlns:xlink="http://www.w3.org/1999/xlink" xmlns:svgjs="http://svgjs.dev/svgjs" viewBox="0 0 800 800" opacity="1"><defs><linearGradient x1="50%" y1="0%" x2="50%" y2="100%" id="uundulate-grad"><stop stop-color="hsl(30, 100%, 50%)" stop-opacity="1" offset="45%"></stop><stop stop-color="hsl(30, 100%, 70%)" stop-opacity="1" offset="100%"></stop></linearGradient></defs><g stroke-width="2" stroke="url(#uundulate-grad)" fill="none"><path d="M721.6942441019803 358.144116783217C744.4727159076324 468.9802107323926 646.5509208563482 647.6775193576345 519.8968620981968 724.8086134799419C393.2428033400456 801.9397076022497 199.22596946866292 801.0301942214487 113.75476206285435 728.3733685702928C28.283554657045727 655.7165429191374 112.21194214630663 522.839712585145 109.63506655031563 376.05585035439435C107.05819095432469 229.27198812364372 38.693023601940695 61.990098160709636 101.38575920209723 23.810829862690014C164.07849480225366 -14.368438435329551 281.3292630769246 123.14259441545641 410.56019743106685 192.7953625238996C539.7911317852092 262.4481306323428 698.9157722963281 247.30802283404137 721.6942441019803 358.144116783217C744.4727159076324 468.9802107323926 646.5509208563482 647.6775193576345 519.8968620981968 724.8086134799419 "></path><path d="M709.3213850383374 359.75396666167194C731.2237617745413 466.3271339204946 637.068189609845 638.1514691370734 515.2854408039303 712.3159827162153C393.5026919980155 786.4804962953572 206.94804404476304 785.605964198433 124.76419076994705 715.7436318415528C42.58033749513112 645.8812994846724 123.2807100809589 518.115116471218 120.8029450848137 376.9767874031886C118.32518008866856 235.8384583351592 52.589442249837816 74.9904872169534 112.87091878844984 38.27965231501145C173.15239532706187 1.568817413069496 285.8935186680916 133.79096438497913 410.1540324701515 200.76477987386681C534.4145462722114 267.7385953627544 687.4190083021334 253.1807994028493 709.3213850383374 359.75396666167194C731.2237617745413 466.3271339204946 637.068189609845 638.1514691370734 515.2854408039303 712.3159827162153 "></path><path d="M696.9485564922726 361.36378602254877C717.9748381590285 463.6740265910187 627.5854888809199 628.6253883989343 510.67405002724183 699.8233214349104C393.76261117356376 771.0212544708866 214.67014913844127 770.1817036578395 135.77364999461793 703.1138645952345C56.877150850794635 636.0460255326293 134.3495085331893 513.3904898397132 131.9708541368899 377.89769393440486C129.59219974059056 242.40489802909656 66.48589141531306 87.99084575561898 124.35610889238058 52.748444249754755C182.2263263694481 17.506042743890475 290.4578047768366 144.43930383692373 409.74789802681425 208.7341667062559C529.0379912767917 273.02902957558797 675.9222748255169 259.0535454540791 696.9485564922726 361.36378602254877C717.9748381590285 463.6740265910187 627.5854888809199 628.6253883989343 510.67405002724183 699.8233214349104 "></path><path d="M684.5756669110516 362.9736053834257C704.7258535083593 461.02091926154253 618.1027271168387 619.0993076607951 506.0625982153972 687.3306601536055C394.0224693139555 755.562012646416 222.39219319696326 754.7574431172461 146.78304818413255 690.4840973489161C71.17390317130184 626.2107515805861 145.41824595026344 508.6658632082082 143.1387021538099 378.8186004656211C140.8591583573563 248.9713377230339 80.38227954563206 100.99120429428461 135.84123796115512 67.217236184498C191.30019637667817 33.443268074711455 295.0220298504255 155.08764328886832 409.34170254832065 216.70355353864494C523.6613752462157 278.31946378842156 664.4254803137441 264.9262915053089 684.5756669110516 362.9736053834257C704.7258535083593 461.02091926154253 618.1027271168387 619.0993076607951 506.0625982153972 687.3306601536055 "></path><path d="M672.202838364987 364.5834857794588C691.4769298928464 458.36787296722287 608.6200263879136 609.5732879578121 501.4512074387087 674.8380599074569C394.28238848950366 740.1028318571017 230.1142982906415 739.3332436118086 157.79250740880343 677.8543911377539C85.47071652696536 616.3755386636991 156.48704440249384 503.94129761185945 154.3066112058861 379.7395680319935C152.1261780092783 255.53783845212752 94.2787287111073 113.99162386810644 147.32642806508585 81.68608915439756C200.3741274190644 49.380554440688684 299.58631595917063 165.7360437759691 408.9355681049833 224.67300140619022C518.2848202507961 283.6099590364114 652.9287468371274 270.7990985916948 672.202838364987 364.5834857794588C691.4769298928464 458.36787296722287 608.6200263879136 609.5732879578121 501.4512074387087 674.8380599074569 "></path><path d="M659.829979301344 366.193366175492C678.2279757597554 455.7148266729031 599.1372951414105 600.0472682548293 496.8397861444421 662.3454596613084C394.54227714747367 724.6436510677875 237.8363728667416 723.9090441063714 168.80193611589618 665.2246849265919C99.76749936505075 606.5403257468123 167.5558123371461 499.21673201551073 165.47448974038417 380.660535598366C163.39316714362218 262.10433918122123 108.17514735900443 126.99204344192833 158.81158765143846 96.15494212429712C209.4480279438726 65.31784080666591 304.15057155033753 176.38444426306995 408.5294031440678 232.64244927373556C512.9082347377982 288.90045428440123 641.4319828429327 276.67190567808086 659.829979301344 366.193366175492C678.2279757597554 455.7148266729031 599.1372951414105 600.0472682548293 496.8397861444421 662.3454596613084 "></path><path d="M647.4571354964902 367.8031855363688C664.9790368854534 453.06171934342706 589.6545791536964 590.5211875166901 492.22838010896453 649.8527983800035C394.80218106423274 709.1844092433168 245.55846270163073 708.4847835657778 179.811380081778 652.5949176802735C114.06429746192521 596.7050517947691 178.62459553058744 494.49210538400575 176.6423835336713 381.58144212958223C174.66017153675517 268.6707788751586 122.07158126569061 139.99240198059397 170.2967624965802 110.62373405904043C218.52194372746976 81.25506613748689 308.7148424002935 187.03278371501455 408.1232534419414 240.61183610612466C507.53166448358934 294.1908884972348 629.9352341075271 282.54465172931066 647.4571354964902 367.8031855363688C664.9790368854534 453.06171934342706 589.6545791536964 590.5211875166901 492.22838010896453 649.8527983800035 "></path><path d="M635.0842459152693 369.4130048972456C651.7300522347842 450.4086120139509 580.1718173896151 580.9951067785507 487.6169282971198 637.3601370986986C395.0620392046246 693.7251674188464 253.28050676015272 693.0605230251841 190.82077827129257 639.965150433955C128.36104978243247 586.8697778427259 189.6933329476616 489.76747875250066 187.81023155059125 382.50234866079836C185.92713015352092 275.23721856909594 135.96796939600955 152.99276051925955 181.78189156535467 125.09252599378368C227.5958137346998 97.19229146830781 313.2790674738824 197.68112316695914 407.7170579634479 248.58122293851375C502.1550484530135 299.4813227100684 618.4384395957543 288.41739778054045 635.0842459152693 369.4130048972456C651.7300522347842 450.4086120139509 580.1718173896151 580.9951067785507 487.6169282971198 637.3601370986986 "></path><path d="M622.7114021104154 371.0228852932788C638.4811133604824 447.75556571963125 570.6891014019009 571.469087075568 483.00552226164234 624.8675368525501C395.3219431213837 678.2659866295322 261.0025965950419 677.636323519747 201.83022223717438 627.3354442227931C142.65784787930693 577.034564925839 200.76211614110292 485.04291315615205 198.9781253438784 383.42331622717086C197.19413454665386 281.8037192981896 149.86440330269573 165.99318009308143 193.2670664104964 139.56137896368324C236.669729518297 113.12957783428504 317.84333832383845 208.32952365405998 407.31090826132163 256.5506708060591C496.7784781988047 304.77181795805825 606.9416908603486 294.2902048669265 622.7114021104154 371.0228852932788C638.4811133604824 447.75556571963125 570.6891014019009 571.469087075568 483.00552226164234 624.8675368525501 "></path><path d="M610.3385430467725 372.63270465415576C625.2321592273912 445.1024583901551 561.2063701553977 561.9430063374286 478.3941009673757 612.3748755712452C395.5818317793537 662.8067448050616 268.724671171142 662.2120629791533 212.83965094426713 614.7056769764747C156.95463071739226 567.199290973796 211.8308840757552 480.3182865246471 210.14600387837646 384.3442227583871C208.46112368099773 288.370158992127 163.76082195059286 178.99353863174701 204.752225996849 154.03017089842655C245.74363004310516 129.06680316510602 322.40759391500535 218.97786310600458 406.90474330040615 264.5200576384482C491.40189268580684 310.0622521708918 595.4449268661538 300.16295091815624 610.3385430467725 372.63270465415576C625.2321592273912 445.1024583901551 561.2063701553977 561.9430063374286 478.3941009673757 612.3748755712452 "></path><path d="M597.9656839831297 374.24253927382165C611.9832050943003 442.44936631946814 551.7236389088946 552.4169408580785 473.7826796731092 599.8822295487294C395.8417204373237 647.3475182393801 276.44674574724206 646.7878176973488 223.8490796513599 602.0759249889453C171.25141355547765 557.3640322805418 222.89965201040746 475.59367515193117 221.31388241287453 385.2651445483923C219.7281128153416 294.93661394485343 177.65724059848998 191.9939124292017 216.23738558320167 168.49897809195886C254.8175305679133 145.00404375471606 326.97184950617236 229.62621781673818 406.4985783394907 272.4894597296263C486.0253071728091 315.3527016425144 583.9481628719591 306.03571222817504 597.9656839831297 374.24253927382165C611.9832050943003 442.44936631946814 551.7236389088946 552.4169408580785 473.7826796731092 599.8822295487294 "></path><path d="M585.5928249194868 375.8523891522766C598.7342509612092 439.79628950757024 542.2409076623915 542.8908906375175 469.1712583788426 587.3895987850026C396.1016090952937 631.8883069324877 284.1688203233422 631.3635876743333 234.85850835845264 589.4461882602052C185.54819639356305 547.5287888460768 233.96841994505974 470.8690790380043 232.4817609473726 386.18608159718667C230.99510194968548 301.5030841563689 191.5536592463871 204.99430148544548 227.72254516955428 182.9678005442803C263.89143109272146 160.94129960311517 331.5361050973393 240.2745877862609 406.0924133785752 280.4588770795935C480.64872165981126 320.6431663729261 572.4513988777644 311.90848879698297 585.5928249194868 375.8523891522766C598.7342509612092 439.79628950757024 542.2409076623915 542.8908906375175 469.1712583788426 587.3895987850026 "></path><path d="M573.219996373422 377.4622237719426C585.4853273456963 437.14319743688327 532.7582069334663 533.3648251581674 464.5598676021541 574.8969527624868C396.36152827084186 616.4290803668063 291.8909254170204 615.9393423925289 245.86796758312346 576.8164362726759C199.84500974922656 537.6935301528229 245.03721839729013 466.1444676652884 243.6496699994488 387.10700338719187C242.26212160160753 308.0695391090954 205.4501084118623 217.99467528290012 239.207735273485 197.43660773781266C272.96536213510774 176.87854019272515 336.1003912060844 250.92294249699455 405.68627893523797 288.42827917077165C475.27216666439153 325.93361584454874 560.9546654011478 317.7812501070018 573.219996373422 377.4622237719426C585.4853273456963 437.14319743688327 532.7582069334663 533.3648251581674 464.5598676021541 574.8969527624868 "></path><path d="M560.8471373097792 379.07207365039756C572.2363732126053 434.49012062498537 523.2754756869631 523.8387749376063 459.9484463078875 562.40432199876C396.62141692881187 600.9698690599139 299.6129999931205 600.5151123695134 256.8773962902162 564.1866995439354C214.1417925873119 527.8582867183577 256.1059863319424 461.41987155136155 254.81754853394688 388.02794043598624C253.5291107359514 314.6360093206109 219.3465270597594 230.99506433914388 250.69289485983768 211.9054301901341C282.0392626599159 192.81579604112426 340.66464679725135 261.57131246651727 405.2801139743225 296.39769652073886C469.8955811513937 331.22408057496045 549.4579014069532 323.65402667580975 560.8471373097792 379.07207365039756C572.2363732126053 434.49012062498537 523.2754756869631 523.8387749376063 459.9484463078875 562.40432199876 "></path><path d="M548.4742782461362 380.6818930112744C558.9874190795142 431.83701329550934 513.79274444046 514.3126941994672 455.33702501362086 549.9116607174552C396.8813055867819 585.5106272354433 307.33507456922064 585.0908518289198 267.88682499730896 551.5569322976173C228.4385754253973 518.0230127663147 267.1747542665947 456.6952449198566 265.98542706844495 388.94884696720237C264.7960998702953 321.2024490145483 233.24294570765653 243.99542287780952 262.1780544461903 226.37422212487735C291.11316318472404 208.75302137194524 345.2289023884183 272.21965191846186 404.8739490134071 304.36708335312795C464.51899563839584 336.514514787794 537.9611374127585 329.52677272703954 548.4742782461362 380.6818930112744C558.9874190795142 431.83701329550934 513.79274444046 514.3126941994672 455.33702501362086 549.9116607174552 "></path><path d="M536.1014191824935 382.2917428897294C545.7384649464232 429.18393648361143 504.3100131939568 504.7866439789061 450.72560371935435 537.4190299537285C397.14119424475183 570.0514159285508 315.05714914532075 569.6666218059042 278.8962537044017 538.9271955688769C242.73535826348268 508.1877693318495 278.24352220124695 451.9706488059297 277.153305602943 389.86978401599674C276.06308900463915 327.76891922606376 247.13936435555365 256.9958119340532 273.66321403254295 240.84304457719878C300.1870637095322 224.69027722034434 349.7931579795853 282.8680218879846 404.46778405249165 312.3365007030951C459.1424101253981 341.8049795182057 526.4643734185637 335.3995492958474 536.1014191824935 382.2917428897294C545.7384649464232 429.18393648361143 504.3100131939568 504.7866439789061 450.72560371935435 537.4190299537285 "></path><path d="M523.7285601188505 383.9015927681844C532.4895108133321 426.53085967171353 494.8272819474537 495.26059375834507 446.11418242508773 524.9263991900018C397.40108290272184 554.5922046216584 322.77922372142086 554.242391782889 289.90568241149447 526.2974588401368C257.0321411015681 498.35252589738457 289.31229013589916 447.2460526920029 288.3211841374411 390.7907210647911C287.330078138983 334.3353894375793 261.0357830034508 269.996200990297 285.14837361889556 255.31186702952022C309.26096423434035 240.62753306874345 354.3574135707522 293.5163918575073 404.0616190915762 320.3059180530623C453.76582461240014 347.0954442486174 514.967609424369 341.27232586465533 523.7285601188505 383.9015927681844C532.4895108133321 426.53085967171353 494.8272819474537 495.26059375834507 446.11418242508773 524.9263991900018 "></path><path d="M511.35570105520765 385.5114426466394C519.2405566802412 423.8777828598156 485.34455070095044 485.734543537784 441.5027611308212 512.433768426275C397.66097156069185 539.132993314766 330.501298297521 538.8181617598734 300.9151111185872 513.6677221113965C271.32892393965346 488.5172824629195 300.38105807055143 442.521456578076 299.48906267193917 391.71165811358543C298.5970672733269 340.90185964909483 274.9322016513479 282.9965900465407 296.63353320524817 269.78068948184165C318.3348647591485 256.56478891714255 358.9216691619192 304.16476182703 403.6554541306608 328.27533540302954C448.3892390994024 352.3859089790291 503.4708454301742 347.14510243346325 511.35570105520765 385.5114426466394C519.2405566802412 423.8777828598156 485.34455070095044 485.734543537784 441.5027611308212 512.433768426275 "></path><path d="M498.9828419915648 387.1212925250944C505.99160254715014 421.22470604791766 475.8618194544473 476.20849331722286 436.8913398365546 499.9411376625483C397.92086021866186 523.6737820078736 338.22337287362103 523.393931736858 311.9245398256799 501.0379853826562C285.62570677773886 478.6820390284545 311.4498260052037 437.7968604641492 310.6569412064373 392.63259516237974C309.86405640767083 347.4683298606103 288.82862029924496 295.99697910278445 308.11869279160084 284.249511934163C327.40876528395665 272.5020447655416 363.4859247530862 314.8131317965527 403.24928916974534 336.24475275299676C443.01265358640455 357.6763737094408 491.97408143597954 353.0178790022711 498.9828419915648 387.1212925250944C505.99160254715014 421.22470604791766 475.8618194544473 476.20849331722286 436.8913398365546 499.9411376625483 "></path><path d="M486.61001344550004 388.7311118859713C492.7426789316372 418.57159871844163 466.3791187255222 466.6824125790837 432.2799490598661 487.4484763812434C398.18077939421 508.2145401834032 345.94547796729927 507.96967119626447 322.9339990503508 488.40821813633795C299.9225201334023 468.84676507641143 322.5186244574341 433.0722338326442 321.8248502585135 393.55350169359593C321.13107605959283 354.03476955454767 302.7250694647202 308.9973376414501 319.60388289553157 298.71830386890633C336.48269632634293 288.4392700963626 368.05021086183126 325.4614712484973 402.84315472640805 344.21413958538585C437.63609859098483 362.96680792227437 480.477347959363 358.8906250535009 486.61001344550004 388.7311118859713C492.7426789316372 418.57159871844163 466.3791187255222 466.6824125790837 432.2799490598661 487.4484763812434 "></path><path d="M474.23712386427906 390.3409465056372C479.49369428096804 415.91850664775467 456.8963569614409 457.1563470997336 427.66849724802137 474.9558303587276C398.4406375346019 492.75531361772164 353.66752202582126 492.5454259144599 333.9433972398654 475.77846614880866C314.2192724539096 459.0115063831573 333.58736187450825 428.3476224599283 332.99269827543344 394.4744234836012C332.3980346763586 360.60122450727414 316.6214575950392 321.99771143890473 331.0890119643061 313.1871110624387C345.55656633357296 304.3765106859726 372.6144359354201 336.10982595923093 402.4369592479145 352.18354167656395C432.25948256040886 368.257257393897 468.9805534475902 364.76338636351977 474.23712386427906 390.3409465056372C479.49369428096804 415.91850664775467 456.8963569614409 457.1563470997336 427.66849724802137 474.9558303587276 "></path><path d="M461.86428005942525 391.9507963840922C466.24475540666606 413.26542983585676 447.41364097372684 447.63029687917253 423.05709121254387 462.4631995950009C398.7005414513609 477.2961023108292 361.38961186071043 477.1211958914445 344.95284120574723 463.1487294200684C328.51607055078404 449.1762629486923 344.6561450679496 423.62302634600144 344.1605920687206 395.39536053239556C343.6650390694915 367.1676947187896 330.5178915017254 334.9981004951485 342.5741868094478 327.6559335147601C354.6304821171702 320.3137665343717 377.1787067853761 346.75819592875365 402.0308095457881 360.15295902653116C426.88291230620007 373.5477221243087 457.4838047121845 370.6361629323277 461.86428005942525 391.9507963840922C466.24475540666606 413.26542983585676 447.41364097372684 447.63029687917253 423.05709121254387 462.4631995950009 "></path><path d="M449.4914209957824 393.56063100375815C452.99580127357507 410.61233776516974 437.93090972722365 438.10423139982237 418.4456699182773 449.9705535724851C398.9604301093309 461.8368757451477 369.11168643681054 461.69695060963994 355.96226991284 450.51897743253903C342.8128533888694 439.3410042554382 355.72491300260185 418.8984149732855 355.32847060321865 396.3162823224008C354.9320282038354 373.7341496715161 344.4143101496225 347.9984742926032 354.0593463958004 342.12474070829245C363.7043826419783 336.25100712398176 381.7429623765431 357.4065506394873 401.62464458487267 368.1223611177093C421.5063267932023 378.8381715959313 445.98704071798977 376.5089242423465 449.4914209957824 393.56063100375815C452.99580127357507 410.61233776516974 437.93090972722365 438.10423139982237 418.4456699182773 449.9705535724851 "></path><path d="M437.1185619321395 395.1704656234241C439.746847140484 407.9592456944828 428.44817848072046 428.57816592047226 413.8342486240107 437.47790754996925C399.2203187673009 446.3776491794663 376.8337610129106 446.2727053278354 366.97169861993274 437.8892254450098C357.1096362269548 429.50574556218413 366.7936809372541 414.1738036005696 366.4963491377167 397.23720411240606C366.19901733817926 380.3006046242425 358.31072879751963 360.99884809005783 365.54450598215305 356.5935479018248C372.7782831667865 352.1882477135918 386.3072179677101 368.0549053502209 401.21847962395725 376.09176320888747C416.1297412802044 384.128621067554 434.4902767237951 382.38168555236535 437.1185619321395 395.1704656234241C439.746847140484 407.9592456944828 428.44817848072046 428.57816592047226 413.8342486240107 437.47790754996925 "></path><path d="M424.7457181272857 396.78031550187904C426.49790826618204 405.30616888258487 418.9654624930063 419.05211569991116 409.2228425885332 424.98527678624254C399.48022268406 430.91843787257386 384.5558508477998 430.84847530481994 377.9811425858145 425.2594887162695C371.4064343238292 419.6705021277191 377.86246413069546 409.44920748664276 377.66424293100386 398.15814116120043C377.46602173131225 386.86707483575805 372.20716270420576 373.9992371463016 377.0296808272947 371.06237035414625C381.8521989503837 368.12550356199085 390.8714888176661 378.7032753197436 400.81232992183084 384.06118055885463C410.75317102599564 389.4190857979657 422.9935279883894 388.2544621211733 424.7457181272857 396.78031550187904C426.49790826618204 405.30616888258487 418.9654624930063 419.05211569991116 409.2228425885332 424.98527678624254 "></path><path d="M412.37285906364286 398.39016538033405C413.24895413309105 402.65309207068697 409.4827312465032 409.5260654793501 404.61142129426656 412.4926460225158C399.74011134203 415.4592265656815 392.2779254238999 415.42424528180453 388.99057129290725 412.6297519875293C385.7032171619146 409.8352586932541 388.93123206534773 404.7246113727159 388.8321214655019 399.07907820999475C388.7330108656561 393.4335450472735 386.1035813521029 386.9996262025453 388.5148404136474 385.53119280646763C390.92609947519185 384.06275941038996 395.43574440883305 389.35164528926634 400.4061649609154 392.03059790882185C405.37658551299785 394.70955052837735 411.49676399419474 394.12723868998114 412.37285906364286 398.39016538033405C413.24895413309105 402.65309207068697 409.4827312465032 409.5260654793501 404.61142129426656 412.4926460225158 "></path></g></svg>